<mxfile host="Electron" agent="Mozilla/5.0 (Windows NT 10.0; Win64; x64) AppleWebKit/537.36 (KHTML, like Gecko) draw.io/28.1.2 Chrome/138.0.7204.243 Electron/37.4.0 Safari/537.36" version="28.1.2">
  <diagram name="Seite-1" id="trXD4LgmYpQosCbpZIKS">
    <mxGraphModel dx="1188" dy="701" grid="1" gridSize="10" guides="1" tooltips="1" connect="1" arrows="1" fold="1" page="1" pageScale="1" pageWidth="827" pageHeight="1169" math="0" shadow="0">
      <root>
        <mxCell id="0" />
        <mxCell id="1" parent="0" />
        <mxCell id="HSmSB2fXon7xOI9rqg9q-1" value="START" style="ellipse;whiteSpace=wrap;html=1;" vertex="1" parent="1">
          <mxGeometry x="330" y="60" width="120" height="80" as="geometry" />
        </mxCell>
        <mxCell id="HSmSB2fXon7xOI9rqg9q-2" value="" style="endArrow=classic;html=1;rounded=0;" edge="1" parent="1">
          <mxGeometry width="50" height="50" relative="1" as="geometry">
            <mxPoint x="389.58" y="140" as="sourcePoint" />
            <mxPoint x="390" y="230" as="targetPoint" />
          </mxGeometry>
        </mxCell>
        <mxCell id="HSmSB2fXon7xOI9rqg9q-3" value="print: Hello!&amp;nbsp;" style="whiteSpace=wrap;html=1;aspect=fixed;" vertex="1" parent="1">
          <mxGeometry x="345" y="230" width="90" height="90" as="geometry" />
        </mxCell>
        <mxCell id="HSmSB2fXon7xOI9rqg9q-6" value="" style="endArrow=classic;html=1;rounded=0;" edge="1" parent="1">
          <mxGeometry width="50" height="50" relative="1" as="geometry">
            <mxPoint x="389.58" y="320" as="sourcePoint" />
            <mxPoint x="389.58" y="390" as="targetPoint" />
          </mxGeometry>
        </mxCell>
        <mxCell id="HSmSB2fXon7xOI9rqg9q-7" value="END" style="ellipse;whiteSpace=wrap;html=1;aspect=fixed;" vertex="1" parent="1">
          <mxGeometry x="350" y="390" width="80" height="80" as="geometry" />
        </mxCell>
        <mxCell id="HSmSB2fXon7xOI9rqg9q-8" value="this prozess shall be written in Pyton" style="shape=document;whiteSpace=wrap;html=1;boundedLbl=1;" vertex="1" parent="1">
          <mxGeometry x="120" y="230" width="150" height="110" as="geometry" />
        </mxCell>
        <mxCell id="HSmSB2fXon7xOI9rqg9q-10" value="Pseudo Code&lt;div&gt;&lt;br&gt;&lt;/div&gt;&lt;div&gt;START&lt;/div&gt;&lt;div&gt;&lt;span style=&quot;white-space: pre;&quot;&gt;&#x9;&lt;/span&gt;PRINT &quot;Hello!&quot;&lt;/div&gt;&lt;div&gt;END&lt;/div&gt;" style="shape=note;whiteSpace=wrap;html=1;backgroundOutline=1;darkOpacity=0.05;align=left;" vertex="1" parent="1">
          <mxGeometry x="570" y="160" width="160" height="220" as="geometry" />
        </mxCell>
      </root>
    </mxGraphModel>
  </diagram>
</mxfile>
